<?xml version="1.0" encoding="UTF-8"?>
<svg viewBox="0 0 288 81" version="1.1" xmlns="http://www.w3.org/2000/svg" xmlns:xlink="http://www.w3.org/1999/xlink">
    <title>Group 2</title>
    <g id="Page-1" stroke="none" stroke-width="1" fill="none" fill-rule="evenodd">
        <g id="solid-light" transform="translate(-889.000000, -604.000000)" fill="#EEF9FF">
            <g id="Group-2" transform="translate(889.500000, 604.599827)">
                <path d="M32.55,25.2 C36.015,25.2 76.965,42.735 79.8,44.1 C82.635,45.465 84,46.725 84,49.35 C84,51.975 82.215,53.445 79.8,54.6 C77.385,55.755 33.6,79.8003459 30.555,79.8003459 C27.51,79.8003459 27.3,77.385 27.3,76.65 L27.3,65.94 L27.3,65.94 C27.3,64.575 28.77,63 30.45,63 L51.45,63 L51.45,63 C61.005,63 65.1,54.6 65.1,49.35 C65.1,44.1 61.005,35.7 51.45,35.7 L32.55,35.7 L32.55,35.7 C29.085,35.7 27.3,32.76 27.3,30.45 C27.3,28.14 29.085,25.2 32.55,25.2 Z M53.445,0 C56.4054167,0 56.6861458,2.28302369 56.6994576,3.08529398 L56.7,13.8603459 L56.7,13.8603459 C56.7,15.2253459 55.23,16.8003459 53.55,16.8003459 L32.55,16.8003459 L32.55,16.8003459 C22.995,16.8003459 18.9,25.2003459 18.9,30.4503459 C18.9,35.7003459 22.995,44.1003459 32.55,44.1003459 L51.45,44.1003459 L51.45,44.1003459 C54.915,44.1003459 56.7,47.0403459 56.7,49.3503459 C56.7,51.6603459 54.915,54.6003459 51.45,54.6003459 C49.82145,54.6003459 39.9124635,50.7268644 29.5720593,46.4792556 L28.2502689,45.9352449 C17.0054115,41.2984629 5.64585,36.3964959 4.2,35.7003459 C1.365,34.3353459 7.10542736e-15,33.0753459 7.10542736e-15,30.4503459 C7.10542736e-15,27.8253459 1.785,26.3553459 4.2,25.2003459 C6.615,24.0453459 50.4,0 53.445,0 Z" id="Combined-Shape"></path>
                <path d="M114.715,55.8501729 C117.055,55.8501729 119.1175,55.4976729 120.9025,54.7926729 C122.6875,54.0876729 124.075,53.0751729 125.065,51.7551729 C126.055,50.4351729 126.55,48.9051729 126.55,47.1651729 C126.55,45.5451729 126.19,44.1876729 125.47,43.0926729 C124.75,41.9976729 123.6025,41.0826729 122.0275,40.3476729 C120.4525,39.6126729 118.33,39.0051729 115.66,38.5251729 C112.81,38.0151729 110.83,37.4076729 109.72,36.7026729 C108.61,35.9976729 108.055,35.0451729 108.055,33.8451729 C108.055,32.5551729 108.625,31.4976729 109.765,30.6726729 C110.905,29.8476729 112.51,29.4351729 114.58,29.4351729 C116.68,29.4351729 118.36,29.8401729 119.62,30.6501729 C120.88,31.4601729 121.93,32.7651729 122.77,34.5651729 L122.77,34.5651729 L126.415,31.2801729 C125.095,29.2401729 123.4675,27.7251729 121.5325,26.7351729 C119.5975,25.7451729 117.265,25.2501729 114.535,25.2501729 C112.195,25.2501729 110.1475,25.6551729 108.3925,26.4651729 C106.6375,27.2751729 105.295,28.3701729 104.365,29.7501729 C103.435,31.1301729 102.97,32.6601729 102.97,34.3401729 C102.97,35.9301729 103.3375,37.2801729 104.0725,38.3901729 C104.8075,39.5001729 105.985,40.4301729 107.605,41.1801729 C109.225,41.9301729 111.4,42.5601729 114.13,43.0701729 C116.86,43.5801729 118.7725,44.1651729 119.8675,44.8251729 C120.9625,45.4851729 121.51,46.3551729 121.51,47.4351729 C121.51,48.7851729 120.9025,49.8276729 119.6875,50.5626729 C118.4725,51.2976729 116.8,51.6651729 114.67,51.6651729 C112.42,51.6651729 110.5375,51.2451729 109.0225,50.4051729 C107.5075,49.5651729 106.27,48.2451729 105.31,46.4451729 L105.31,46.4451729 L101.935,49.8201729 C104.425,53.8401729 108.685,55.8501729 114.715,55.8501729 Z M133.875,29.1201729 C134.895,29.1201729 135.6825,28.8576729 136.2375,28.3326729 C136.7925,27.8076729 137.07,27.0651729 137.07,26.1051729 C137.07,25.1451729 136.7925,24.4101729 136.2375,23.9001729 C135.6825,23.3901729 134.895,23.1351729 133.875,23.1351729 C132.855,23.1351729 132.06,23.3901729 131.49,23.9001729 C130.92,24.4101729 130.635,25.1451729 130.635,26.1051729 C130.635,27.0651729 130.92,27.8076729 131.49,28.3326729 C132.06,28.8576729 132.855,29.1201729 133.875,29.1201729 Z M136.26,55.4001729 L136.26,32.9001729 L131.445,32.9001729 L131.445,55.4001729 L136.26,55.4001729 Z M151.505,65.0751729 C153.695,65.0751729 155.6675,64.7751729 157.4225,64.1751729 C159.1775,63.5751729 160.5575,62.7201729 161.5625,61.6101729 C162.5675,60.5001729 163.07,59.1801729 163.07,57.6501729 C163.07,55.8501729 162.44,54.4401729 161.18,53.4201729 C159.92,52.4001729 158.15,51.8901729 155.87,51.8901729 L155.87,51.8901729 L148.355,51.8901729 C147.485,51.8901729 146.8025,51.7026729 146.3075,51.3276729 C145.8125,50.9526729 145.565,50.4201729 145.565,49.7301729 C145.565,49.0701729 145.7375,48.5376729 146.0825,48.1326729 C146.4275,47.7276729 146.975,47.4351729 147.725,47.2551729 C148.835,47.5251729 150.08,47.6601729 151.46,47.6601729 C154.4,47.6601729 156.7625,46.9701729 158.5475,45.5901729 C160.3325,44.2101729 161.225,42.3651729 161.225,40.0551729 C161.225,38.8251729 160.955,37.7151729 160.415,36.7251729 C159.875,35.7351729 159.11,34.8951729 158.12,34.2051729 C158.45,33.4251729 159.0575,32.8401729 159.9425,32.4501729 C160.8275,32.0601729 161.99,31.8801729 163.43,31.9101729 L163.43,31.9101729 L162.62,28.1751729 C160.82,28.1451729 159.3725,28.5576729 158.2775,29.4126729 C157.1825,30.2676729 156.425,31.5201729 156.005,33.1701729 C154.625,32.6901729 153.11,32.4501729 151.46,32.4501729 C149.54,32.4501729 147.8375,32.7651729 146.3525,33.3951729 C144.8675,34.0251729 143.72,34.9176729 142.91,36.0726729 C142.1,37.2276729 141.695,38.5551729 141.695,40.0551729 C141.695,41.4051729 141.9875,42.6051729 142.5725,43.6551729 C143.1575,44.7051729 144.02,45.5601729 145.16,46.2201729 C142.82,47.0301729 141.65,48.5301729 141.65,50.7201729 C141.65,51.7101729 141.935,52.5576729 142.505,53.2626729 C143.075,53.9676729 143.84,54.5451729 144.8,54.9951729 C143.54,55.3251729 142.5575,55.8726729 141.8525,56.6376729 C141.1475,57.4026729 140.795,58.2951729 140.795,59.3151729 C140.795,61.0551729 141.6875,62.4501729 143.4725,63.5001729 C145.2575,64.5501729 147.935,65.0751729 151.505,65.0751729 Z M151.46,44.3301729 C150.08,44.3301729 148.925,43.9326729 147.995,43.1376729 C147.065,42.3426729 146.6,41.3151729 146.6,40.0551729 C146.6,38.8251729 147.065,37.8126729 147.995,37.0176729 C148.925,36.2226729 150.08,35.8251729 151.46,35.8251729 C152.87,35.8251729 154.0325,36.2151729 154.9475,36.9951729 C155.8625,37.7751729 156.32,38.7951729 156.32,40.0551729 C156.32,41.3151729 155.8625,42.3426729 154.9475,43.1376729 C154.0325,43.9326729 152.87,44.3301729 151.46,44.3301729 Z M151.955,61.4751729 C149.615,61.4751729 147.8525,61.1976729 146.6675,60.6426729 C145.4825,60.0876729 144.89,59.3001729 144.89,58.2801729 C144.89,57.5301729 145.2275,56.9451729 145.9025,56.5251729 C146.5775,56.1051729 147.59,55.8951729 148.94,55.8951729 L148.94,55.8951729 L155.015,55.8951729 C156.425,55.8951729 157.43,56.0901729 158.03,56.4801729 C158.63,56.8701729 158.93,57.4401729 158.93,58.1901729 C158.93,59.1201729 158.315,59.9001729 157.085,60.5301729 C155.855,61.1601729 154.145,61.4751729 151.955,61.4751729 Z M171.52,55.4001729 L171.52,43.4751729 C171.52,41.0751729 172.12,39.2976729 173.32,38.1426729 C174.52,36.9876729 175.96,36.4101729 177.64,36.4101729 C180.85,36.4101729 182.455,38.3901729 182.455,42.3501729 L182.455,42.3501729 L182.455,55.4001729 L187.27,55.4001729 L187.27,40.8201729 C187.27,38.1201729 186.4825,36.0501729 184.9075,34.6101729 C183.3325,33.1701729 181.3,32.4501729 178.81,32.4501729 C177.13,32.4501729 175.63,32.7951729 174.31,33.4851729 C172.99,34.1751729 171.955,35.2251729 171.205,36.6351729 L171.205,36.6351729 L170.98,32.9001729 L166.705,32.9001729 L166.705,55.4001729 L171.52,55.4001729 Z M211.56,55.8501729 C212.61,55.8501729 213.54,55.6701729 214.35,55.3101729 L214.35,55.3101729 L214.665,52.0701729 C214.215,52.1901729 213.66,52.2501729 213,52.2501729 C212.4,52.2501729 211.9725,52.1151729 211.7175,51.8451729 C211.4625,51.5751729 211.335,51.1551729 211.335,50.5851729 L211.335,50.5851729 L211.335,40.4151729 C211.335,37.8051729 210.48,35.8251729 208.77,34.4751729 C207.06,33.1251729 204.75,32.4501729 201.84,32.4501729 C199.41,32.4501729 197.3625,32.9751729 195.6975,34.0251729 C194.0325,35.0751729 192.93,36.5001729 192.39,38.3001729 L192.39,38.3001729 L196.125,40.2801729 C197.025,37.5801729 198.96,36.2301729 201.93,36.2301729 C203.37,36.2301729 204.495,36.6276729 205.305,37.4226729 C206.115,38.2176729 206.52,39.3051729 206.52,40.6851729 L206.52,40.6851729 L206.52,41.9001729 L200.805,42.8901729 C197.895,43.4001729 195.705,44.2626729 194.235,45.4776729 C192.765,46.6926729 192.03,48.1851729 192.03,49.9551729 C192.03,51.8451729 192.705,53.3001729 194.055,54.3201729 C195.405,55.3401729 197.175,55.8501729 199.365,55.8501729 C201.045,55.8501729 202.56,55.5576729 203.91,54.9726729 C205.26,54.3876729 206.28,53.5701729 206.97,52.5201729 C207.21,53.7201729 207.7125,54.5751729 208.4775,55.0851729 C209.2425,55.5951729 210.27,55.8501729 211.56,55.8501729 Z M200.4,52.2051729 C199.32,52.2051729 198.4875,51.9876729 197.9025,51.5526729 C197.3175,51.1176729 197.025,50.4801729 197.025,49.6401729 C197.025,48.7401729 197.4,48.0201729 198.15,47.4801729 C198.9,46.9401729 200.055,46.5201729 201.615,46.2201729 L201.615,46.2201729 L206.52,45.2301729 L206.52,47.9301729 C206.52,49.2201729 205.905,50.2551729 204.675,51.0351729 C203.445,51.8151729 202.02,52.2051729 200.4,52.2051729 Z M226.94,55.8501729 C228.65,55.8501729 230.1725,55.4451729 231.5075,54.6351729 C232.8425,53.8251729 233.84,52.7451729 234.5,51.3951729 L234.5,51.3951729 L234.77,55.4001729 L239,55.4001729 L239,22.7751729 L234.185,22.7751729 L234.185,36.5451729 C233.525,35.2851729 232.565,34.2876729 231.305,33.5526729 C230.045,32.8176729 228.59,32.4501729 226.94,32.4501729 C223.85,32.4501729 221.4125,33.4926729 219.6275,35.5776729 C217.8425,37.6626729 216.95,40.5351729 216.95,44.1951729 C216.95,47.8551729 217.8425,50.7126729 219.6275,52.7676729 C221.4125,54.8226729 223.85,55.8501729 226.94,55.8501729 Z M228.02,51.9801729 C226.07,51.9801729 224.5475,51.2901729 223.4525,49.9101729 C222.3575,48.5301729 221.81,46.6101729 221.81,44.1501729 C221.81,41.6901729 222.3575,39.7776729 223.4525,38.4126729 C224.5475,37.0476729 226.07,36.3651729 228.02,36.3651729 C229.91,36.3651729 231.41,37.0326729 232.52,38.3676729 C233.63,39.7026729 234.185,41.5401729 234.185,43.8801729 L234.185,43.8801729 L234.185,44.4201729 C234.185,46.7601729 233.63,48.6051729 232.52,49.9551729 C231.41,51.3051729 229.91,51.9801729 228.02,51.9801729 Z M255.37,55.8501729 C258.88,55.8501729 261.625,54.8151729 263.605,52.7451729 C265.585,50.6751729 266.575,47.8101729 266.575,44.1501729 C266.575,40.4901729 265.585,37.6251729 263.605,35.5551729 C261.625,33.4851729 258.88,32.4501729 255.37,32.4501729 C251.86,32.4501729 249.115,33.4851729 247.135,35.5551729 C245.155,37.6251729 244.165,40.4901729 244.165,44.1501729 C244.165,47.8101729 245.155,50.6751729 247.135,52.7451729 C249.115,54.8151729 251.86,55.8501729 255.37,55.8501729 Z M255.37,52.0701729 C253.33,52.0701729 251.7625,51.3876729 250.6675,50.0226729 C249.5725,48.6576729 249.025,46.7001729 249.025,44.1501729 C249.025,41.6001729 249.5725,39.6426729 250.6675,38.2776729 C251.7625,36.9126729 253.33,36.2301729 255.37,36.2301729 C257.41,36.2301729 258.985,36.9201729 260.095,38.3001729 C261.205,39.6801729 261.76,41.6301729 261.76,44.1501729 C261.76,46.6701729 261.205,48.6201729 260.095,50.0001729 C258.985,51.3801729 257.41,52.0701729 255.37,52.0701729 Z M280.02,55.8501729 C281.22,55.8501729 282.3375,55.6776729 283.3725,55.3326729 C284.4075,54.9876729 285.285,54.5151729 286.005,53.9151729 L286.005,53.9151729 L284.88,50.4051729 C283.83,51.3651729 282.615,51.8451729 281.235,51.8451729 C280.215,51.8451729 279.4125,51.5826729 278.8275,51.0576729 C278.2425,50.5326729 277.95,49.7301729 277.95,48.6501729 L277.95,48.6501729 L277.95,36.6801729 L285.825,36.6801729 L285.825,32.9001729 L277.95,32.9001729 L277.95,26.2851729 L273.135,27.6351729 L273.135,32.9001729 L268.86,32.9001729 L268.86,36.6801729 L273.135,36.6801729 L273.135,49.4601729 C273.165,51.6501729 273.8025,53.2626729 275.0475,54.2976729 C276.2925,55.3326729 277.95,55.8501729 280.02,55.8501729 Z" id="Signadot" fill-rule="nonzero"></path>
            </g>
        </g>
    </g>
</svg>