<?xml version="1.0" encoding="UTF-8"?>
<svg width="144px" height="137px" viewBox="0 0 144 137" version="1.1" xmlns="http://www.w3.org/2000/svg" xmlns:xlink="http://www.w3.org/1999/xlink">
    <title>Combined Shape</title>
    <g id="Page-1" stroke="none" stroke-width="1" fill="none" fill-rule="evenodd">
        <g id="solid-light" transform="translate(-648.000000, -175.000000)" fill="#EEF9FF">
            <path d="M703.8,218.2 C709.74,218.2 779.94,248.26 784.8,250.6 C789.66,252.94 792,255.1 792,259.6 C792,264.1 788.94,266.62 784.8,268.6 C782.7714,269.5702 763.714908,279.962066 744.190797,290.309421 L741.798879,291.575578 C722.264184,301.903529 702.9378,311.800593 700.38,311.800593 C695.256667,311.800593 694.815,307.811935 694.800399,306.472919 L694.8,288.04 L694.8,288.04 C694.8,285.7 697.32,283 700.2,283 L736.2,283 L736.2,283 C752.58,283 759.6,268.6 759.6,259.6 C759.6,250.6 752.58,236.2 736.2,236.2 L703.8,236.2 L703.8,236.2 C697.86,236.2 694.8,231.16 694.8,227.2 C694.8,223.24 697.86,218.2 703.8,218.2 Z M739.62,175 C744.84,175 745.2,179.140593 745.2,180.400593 L745.2,198.760593 L745.2,198.760593 C745.2,201.100593 742.68,203.800593 739.8,203.800593 L703.8,203.800593 L703.8,203.800593 C687.42,203.800593 680.4,218.200593 680.4,227.200593 C680.4,236.200593 687.42,250.600593 703.8,250.600593 L736.2,250.600593 L736.2,250.600593 C742.14,250.600593 745.2,255.640593 745.2,259.600593 C745.2,263.560593 742.14,268.600593 736.2,268.600593 C730.26,268.600593 660.06,238.540593 655.2,236.200593 C650.34,233.860593 648,231.700593 648,227.200593 C648,222.700593 651.06,220.180593 655.2,218.200593 C659.34,216.220593 734.4,175 739.62,175 Z" id="Combined-Shape"></path>
        </g>
    </g>
</svg>